<svg xmlns="http://www.w3.org/2000/svg" viewBox="0 0 68.01 58.55"><defs><style>.cls-1{fill:#f4f4f2;}</style></defs><title>Risorsa 7</title><g id="Livello_2" data-name="Livello 2"><g id="Livello_1-2" data-name="Livello 1"><path class="cls-1" d="M31.79,43.38l2.82,2.21A6.61,6.61,0,0,1,33,47.23a7.93,7.93,0,0,1-10.58-1.66,7,7,0,0,1-1.34-4.17,7,7,0,0,1,2.46-5.86,7.67,7.67,0,0,1,5.69-1.76,7.51,7.51,0,0,1,4.57,1.78c.27.24.51.53.81.84l-2.82,2.47-.26-.23a3.65,3.65,0,0,0-4-1,3.4,3.4,0,0,0-2.4,3,5.32,5.32,0,0,0,0,1.26,3.31,3.31,0,0,0,3.41,3,3.6,3.6,0,0,0,2.81-1.19l.27-.28S31.71,43.42,31.79,43.38Z"/><path class="cls-1" d="M10.19,35.06,8.6,38l-.46-.24A5.33,5.33,0,0,0,5.59,37a1.74,1.74,0,0,0-.78.2.8.8,0,0,0-.07,1.35,3.32,3.32,0,0,0,.92.41c.76.27,1.54.49,2.3.75a7,7,0,0,1,.88.4,3.41,3.41,0,0,1,1.83,2.64,5.57,5.57,0,0,1-.34,3.05,4,4,0,0,1-2.7,2.32A8.76,8.76,0,0,1,.26,47,2.13,2.13,0,0,1,0,46.76l1.62-2.9.43.28a5.26,5.26,0,0,0,2.61,1.09,5.06,5.06,0,0,0,1.29,0,1,1,0,0,0,.27-1.9,11,11,0,0,0-1.13-.43c-.74-.27-1.5-.49-2.24-.79A3.54,3.54,0,0,1,.53,38.68,5.09,5.09,0,0,1,1.06,36,4,4,0,0,1,4,33.93a8.18,8.18,0,0,1,5.85.88C9.93,34.88,10,35,10.19,35.06Z"/><path class="cls-1" d="M61.38,39l.35-.71c.57-1.26,1.15-2.52,1.71-3.8a.68.68,0,0,1,.75-.5c1.1,0,2.2,0,3.3,0l.52,0-.21.44-4.27,8a2.3,2.3,0,0,0-.3,1.2c0,1.28,0,2.56,0,3.83v.67H59.19c0-.23,0-.44,0-.65,0-1.44,0-2.87,0-4.31a1.77,1.77,0,0,0-.2-.78c-1.32-2.67-2.65-5.32-4-8l-.17-.39a2,2,0,0,1,.29,0h3.73a.54.54,0,0,1,.58.38c.55,1.32,1.11,2.62,1.67,3.93Z"/><path class="cls-1" d="M49.1,44.68h5.18c0,1.2,0,2.33,0,3.51H45.12c-.14-.38-.2-13.51-.06-14.14H49c0,.19,0,.38,0,.56,0,3.15,0,6.3,0,9.45C49.07,44.25,49.09,44.44,49.1,44.68Z"/><path class="cls-1" d="M13.87,48.16V34h4V48.13A22.73,22.73,0,0,1,13.87,48.16Z"/><path class="cls-1" d="M37.42,34.05h4V48.2H37.47C37.41,43.47,37.44,38.78,37.42,34.05Z"/><path class="cls-1" d="M32.53,23.34a9.72,9.72,0,0,1-3.74-1.46c-.32.31-.62.6-.91.9-.93.92-1.84,1.86-2.77,2.78a4.19,4.19,0,0,1-.54.49,1.15,1.15,0,0,1-1.83-.87,1.57,1.57,0,0,1,.58-1.32l3.45-3.41.35-.36a8.3,8.3,0,0,1-1.58-3.91c-.23,0-.44,0-.64,0-1.85,0-3.69,0-5.53,0a2.1,2.1,0,0,1-.71-.1,1.22,1.22,0,0,1-.59-1.37,1,1,0,0,1,1-.9h6.51a8.4,8.4,0,0,1,1.56-3.6c-.35-.38-.69-.75-1-1.1L23.61,6.59a4.94,4.94,0,0,1-.6-.7,1.22,1.22,0,0,1,.14-1.63,1.09,1.09,0,0,1,1.57,0c.72.67,1.41,1.38,2.1,2.08l1.69,1.67c.12.13.26.24.41.39A8.15,8.15,0,0,1,32.53,7V1.61a3.75,3.75,0,0,1,0-.58,1.16,1.16,0,0,1,1.11-1A1.13,1.13,0,0,1,34.8.93a4.9,4.9,0,0,1,.07.77V7a9.36,9.36,0,0,1,3.56,1.51c.71-.71,1.4-1.39,2.08-2.08s1.19-1.19,1.78-1.78a4.48,4.48,0,0,1,.4-.36,1.17,1.17,0,0,1,1.51-.06,1.29,1.29,0,0,1,.31,1.51,2.6,2.6,0,0,1-.47.62L40.6,9.8l-.35.37c.33.59.68,1.14.94,1.73s.41,1.18.63,1.84H48a1.2,1.2,0,0,1,.29,2.38,3.76,3.76,0,0,1-.58,0H42.21a3.32,3.32,0,0,0-.41,0A8.88,8.88,0,0,1,40.29,20l1.3,1.32,2.61,2.59a1.35,1.35,0,0,1,.42,1.37,1.15,1.15,0,0,1-1.79.71,7.09,7.09,0,0,1-.65-.58q-1.7-1.7-3.37-3.41l-.26-.23a9.89,9.89,0,0,1-3.69,1.58v.55c0,1.67,0,3.33,0,5a2.77,2.77,0,0,1-.2,1,1,1,0,0,1-1,.61,1,1,0,0,1-1-.68,2.4,2.4,0,0,1-.14-.8c0-1.68,0-3.36,0-5Zm7-8.1a5.92,5.92,0,0,0-5.72-6,5.89,5.89,0,1,0,5.72,6Z"/><path class="cls-1" d="M51,58.55,47.13,54.8v3.42h-1V52.09c1.3,1.37,2.49,2.68,3.76,3.91L50,56V52.5h1A52.3,52.3,0,0,1,51,58.55Z"/><path class="cls-1" d="M30.91,56.21l1.29,1.91a1,1,0,0,1-1.37-.27c-.31-.43-.62-.87-.92-1.31a.58.58,0,0,0-.75-.22V58.2h-1c0-.14,0-.28,0-.43,0-1.61,0-3.22,0-4.84,0-.44,0-.47.46-.46a17.88,17.88,0,0,1,1.94.07A1.86,1.86,0,0,1,32,55.34,1.91,1.91,0,0,1,30.91,56.21Zm-1.72-2.86v2.12a9.89,9.89,0,0,0,1.28-.13,1,1,0,0,0-.06-1.9A11.65,11.65,0,0,0,29.19,53.35Z"/><path class="cls-1" d="M65.49,54.86v.87H63.13v1.55H65.7v.92H62.06V52.5h3.61v.86H63.12v1.5Z"/><path class="cls-1" d="M11.84,58.19l-.13.05c-1,.08-1,.08-1.57-.79-.28-.45-.55-.9-.87-1.43-.15.23-.26.38-.36.54-.28.47-.56.94-.83,1.42a.52.52,0,0,1-.51.3c-.25,0-.5,0-.82,0a4,4,0,0,1,.18-.36c.49-.78,1-1.56,1.48-2.33a.57.57,0,0,0,0-.74C8,54.23,7.59,53.6,7.19,53l-.27-.45a2.37,2.37,0,0,1,1.12,0c.12,0,.23.2.32.33.31.49.61,1,1,1.55.14-.19.25-.32.34-.46.23-.37.47-.73.68-1.12a.59.59,0,0,1,.63-.34c.23,0,.46,0,.77,0-.1.18-.14.28-.2.37-.44.69-.88,1.39-1.34,2.07a.53.53,0,0,0,0,.7c.47.7.92,1.41,1.38,2.11C11.66,57.85,11.74,58,11.84,58.19Z"/><path class="cls-1" d="M43,57.28v.9H39.38V52.49h3.67v.86H40.44v1.49h2.29v.9H40.44v1.54Z"/><path class="cls-1" d="M.65,52.49H4.26v.88H1.67v1.5H4v.86H1.69V57.3H4.3v.9H.65Z"/><path class="cls-1" d="M24.85,54.85v.88H22.54v1.55h2.58v.91H21.49V52.5h3.63v.86H22.53a8.19,8.19,0,0,0,0,1.49Z"/><path class="cls-1" d="M15.63,56.25v2h-1V52.47a9.91,9.91,0,0,1,2.93.16,1.57,1.57,0,0,1,1.15,1.46,1.75,1.75,0,0,1-.82,1.83,2.36,2.36,0,0,1-1.25.33Zm0-.86a12,12,0,0,0,1.24-.07.93.93,0,0,0,.8-1,.89.89,0,0,0-.8-.94,10.19,10.19,0,0,0-1.24,0Z"/><path class="cls-1" d="M59.27,53.22l-.6.63c-1.3-.73-2.4-.7-3.07.06a2.27,2.27,0,0,0-.14,2.74c.66.85,1.68.93,3.15.23l.58.42a1.63,1.63,0,0,1-.83.73,3.1,3.1,0,0,1-4.14-1.34,3,3,0,0,1,2.57-4.31,5.29,5.29,0,0,1,1.47.18A1.79,1.79,0,0,1,59.27,53.22Z"/><path class="cls-1" d="M35.23,58.21V52.48h.92a48.91,48.91,0,0,1,.05,5.73Z"/></g></g></svg>