<svg xmlns="http://www.w3.org/2000/svg" viewBox="0 0 53.38 71.8"><defs><style>.cls-1{fill:#32312a;}.cls-2{fill:#34322b;}.cls-3{fill:#8fc9cc;}.cls-4{fill:#21667e;}.cls-5{fill:#f4ab2e;}.cls-6{fill:#e8d3b9;}.cls-7{fill:#ea5056;}.cls-8{fill:#eb5157;}.cls-9{fill:#ec5057;}.cls-10{fill:#2ca6b9;}.cls-11{fill:#e8d2b8;}.cls-12{fill:#ead3b9;}.cls-13{fill:#eeba35;}.cls-14{fill:#f18841;}.cls-15{fill:#2e302b;}.cls-16{fill:#d898a2;}.cls-17{fill:#d89ba3;}.cls-18{fill:#32322d;}.cls-19{fill:#d59ba1;}.cls-20{fill:#f0933d;}.cls-21{fill:#2b2213;}.cls-22{fill:#9b9282;}.cls-23{fill:#35322d;}.cls-24{fill:#37352d;}.cls-25{fill:#2d2e28;}</style></defs><title>Risorsa 3</title><g id="Livello_2" data-name="Livello 2"><g id="Livello_1-2" data-name="Livello 1"><path class="cls-1" d="M18.56,69.84H16.49v1.23h2.28l-.1.67h-3V67.46h2.94v.67H16.49v1.05h2.07Z" transform="translate(-11.61)"/><path class="cls-1" d="M23,71.74l-1-1.59h0l-1,1.59h-.87l1.43-2.16-1.39-2.12h.94L22,69h0l1-1.51h.85l-1.39,2.05,1.45,2.23Z" transform="translate(-11.61)"/><path class="cls-1" d="M25.37,67.46h1.72a1.33,1.33,0,1,1,0,2.63h-.89v1.65h-.8Zm.8,2H27c.49,0,.79-.21.79-.66s-.33-.67-.76-.67h-.83Z" transform="translate(-11.61)"/><path class="cls-1" d="M33.08,69.84H31v1.23h2.29l-.1.67h-3V67.46h3v.67H31v1.05h2.08Z" transform="translate(-11.61)"/><path class="cls-1" d="M35.7,70v1.77h-.79V67.46h1.81c.91,0,1.4.5,1.4,1.17a1,1,0,0,1-.65,1c.25.08.57.31.57,1.07v.2a3,3,0,0,0,.06.83h-.77a3.24,3.24,0,0,1-.08-.95v-.07c0-.52-.14-.75-.85-.75Zm0-.65h.83c.55,0,.78-.21.78-.61s-.25-.6-.75-.6H35.7Z" transform="translate(-11.61)"/><path class="cls-1" d="M40.72,67.46v4.28h-.8V67.46Z" transform="translate(-11.61)"/><path class="cls-1" d="M45.57,69.84H43.49v1.23h2.29l-.1.67h-3V67.46h2.95v.67H43.49v1.05h2.08Z" transform="translate(-11.61)"/><path class="cls-1" d="M47.4,71.74V67.46h1c.56,1,1.67,2.84,1.88,3.31h0c0-.48,0-1.2,0-1.9V67.46H51v4.28H50c-.49-.87-1.69-3-1.92-3.45h0c0,.41,0,1.24,0,2v1.44Z" transform="translate(-11.61)"/><path class="cls-1" d="M56.51,70.46a1.69,1.69,0,0,1-1.79,1.34,1.94,1.94,0,0,1-2-2.18,2,2,0,0,1,2-2.22,1.61,1.61,0,0,1,1.76,1.35h-.8a.93.93,0,0,0-1-.71c-.83,0-1.15.74-1.15,1.55s.29,1.57,1.17,1.57a1,1,0,0,0,1-.7Z" transform="translate(-11.61)"/><path class="cls-1" d="M61,69.84H59v1.23h2.28l-.1.67h-3V67.46h2.94v.67H59v1.05H61Z" transform="translate(-11.61)"/><path class="cls-1" d="M14.93,62.76c.14.73.64,1,1.43,1s1.08-.26,1.08-.74-.37-.76-1.68-1.07c-2.46-.6-2.95-1.49-2.95-2.61,0-1.4,1-2.57,3.34-2.57s3.4,1.22,3.52,2.53H17.31c-.07-.44-.3-.9-1.16-.9-.56,0-.9.21-.9.66s.3.63,1.59.95c2.56.64,3.07,1.56,3.07,2.75,0,1.56-1.2,2.65-3.65,2.65s-3.53-1.08-3.71-2.68Z" transform="translate(-11.61)"/><path class="cls-1" d="M25.92,57v8.33H23.47V57Z" transform="translate(-11.61)"/><path class="cls-1" d="M37.61,62.54c-.31,1.75-1.59,2.9-3.87,2.9-2.73,0-4.05-1.84-4.05-4.26S31,56.8,33.86,56.8c2.44,0,3.56,1.42,3.72,2.86H35.16a1.27,1.27,0,0,0-1.36-1.15c-1.19,0-1.59,1.13-1.59,2.58s.33,2.63,1.62,2.63a1.3,1.3,0,0,0,1.34-1.18Z" transform="translate(-11.61)"/><path class="cls-1" d="M43.64,57v8.33H41.2V57Z" transform="translate(-11.61)"/><path class="cls-1" d="M47.79,57h2.45v6.52h3.93l-.27,1.81H47.79Z" transform="translate(-11.61)"/><path class="cls-1" d="M58.06,65.28V62.4a.52.52,0,0,0-.09-.32L55.12,57h2.76c.53,1.18,1.13,2.53,1.51,3.48.34-.91,1-2.41,1.53-3.48h2.55l-2.89,5.12a.54.54,0,0,0-.07.31v2.9Z" transform="translate(-11.61)"/><path class="cls-2" d="M65,27a25.23,25.23,0,0,1-6.1,16.09A26.62,26.62,0,0,1,52,49a25.21,25.21,0,0,1-13.88,3.85A26.45,26.45,0,0,1,17,42.26a26.17,26.17,0,0,1-3.38-6,24.87,24.87,0,0,1-1.81-7.07,25.14,25.14,0,0,1,2.82-14.69A27.21,27.21,0,0,1,24.65,3.81,25.5,25.5,0,0,1,40.5.11,26.5,26.5,0,0,1,54.29,5.27a26,26,0,0,1,9.65,13.87A27.34,27.34,0,0,1,65,27Z" transform="translate(-11.61)"/><path class="cls-3" d="M51.22,37.84l2.37-1.6A11.3,11.3,0,0,1,57,34.62a6.89,6.89,0,0,1,4.88.61c.32.16.33.23.18.6a24.49,24.49,0,0,1-3.27,5.62c-.38.51-.79,1-1.19,1.5l-.69-.43a4.12,4.12,0,0,0-1.4-.5,2.39,2.39,0,0,1-.46-.12c-.25-.13-.53,0-.79-.09a2.07,2.07,0,0,0-1.28,0c-.3.14-.64,0-.95.12a17,17,0,0,0-5.21,2.56,14.4,14.4,0,0,1-5.42,2.18,12.48,12.48,0,0,1-5.4-.43,27,27,0,0,1-5.43-2.37,10.25,10.25,0,0,0-6.51-1.18,3.51,3.51,0,0,0-1.66.51l-.13.07a.54.54,0,0,0-.29.15l-.16.14-.11.07-.06,0h-.13a.48.48,0,0,0-.3.11c-.15.12-.3.24-.44.37-.37.35-.38.36-.74,0-.59-.64-1.18-1.28-1.73-2A24.2,24.2,0,0,1,15.62,38a4.41,4.41,0,0,1-.19-.46l.6.21c1.32.5,2.63,1,4,1.48a12,12,0,0,0,3.25.71c.28.13.59,0,.87.1l2.12.12a2.18,2.18,0,0,1,1.49.09l1.28.1c.41-.19.77.12,1.16.12l.83.09c.16.15.4,0,.56.12l.63.1a.52.52,0,0,1,.64.12l.61.11c.14.09.32,0,.45.09l.43.09c.23-.17.48-.08.72,0a44,44,0,0,0,4.72.68,13,13,0,0,0,8.29-2c.78-.52,1.58-1,2.32-1.6A1.6,1.6,0,0,1,51.22,37.84Z" transform="translate(-11.61)"/><path class="cls-4" d="M56.1,43.34a2.6,2.6,0,0,1,.42.29c.19.2.16.37,0,.55-.53.48-1.06,1-1.61,1.43s-1,.78-1.55,1.17a28,28,0,0,1-3.78,2.3,14.66,14.66,0,0,1-2.29,1,15,15,0,0,1-1.92.65c-1.17.21-2.31.53-3.49.72a35.18,35.18,0,0,1-5.23.18,14.82,14.82,0,0,1-2.81-.37,17.72,17.72,0,0,1-2.16-.48c-.81-.23-1.61-.49-2.4-.77-.42-.14-.81-.33-1.22-.49a23,23,0,0,1-4.26-2.29,24,24,0,0,1-2.2-1.71c-.1-.08-.14-.25-.21-.38.19-.51.72-.68,1-1l.14-.09a7.08,7.08,0,0,1,3.8-.72,13.52,13.52,0,0,1,5.09,1.86,25,25,0,0,0,5.48,2.11,12.43,12.43,0,0,0,9.42-1.64c1-.57,1.93-1.18,2.9-1.77a10.16,10.16,0,0,1,3.63-1.28,4.72,4.72,0,0,1,2,.17,2,2,0,0,1,.24,0c.21,0,.3.21.44.32l.21,0c.1,0,.16.06.22.11h0A.39.39,0,0,0,56.1,43.34Z" transform="translate(-11.61)"/><path class="cls-5" d="M45.15,21.88c-.15.45-.15.45.22.75.15.11.38.11.45.33a.63.63,0,0,0,.6.5.25.25,0,1,1,0,.49.56.56,0,0,0-.42.27,2.88,2.88,0,0,1-.58,0,1.13,1.13,0,0,0-1.24,1.35,1.11,1.11,0,0,0,.08.36.77.77,0,0,1-.13.79c-.46.65-.89,1.32-1.33,2-.27.39-.3.39-.64.09l-3.51-3.23a4.42,4.42,0,0,0-.53-.44.53.53,0,0,0-.8.08,3.76,3.76,0,0,0-.46.71l-3.2,6.16a1.76,1.76,0,0,1-.94-.31.41.41,0,0,1-.13-.55h0c.18-.13.14-.27,0-.41l-.11-.2a.5.5,0,0,0-.64,0h0c-.45.3-.77-.19-1.18-.21-.09,0-.07-.21,0-.32h0c.18-.39.17-.68-.31-.87a1.51,1.51,0,0,1-.54-1.57l.83-.17a.62.62,0,0,0,.54-.44.57.57,0,0,0-.31-.67c-.11-.1-.25-.17-.33-.33-.25-.49-.21-.6.34-.67a.59.59,0,0,0,.41-.28c.2-.29.33-.58,0-.88s-.16-.51.15-.72.49-.15.7-.31a.59.59,0,0,0,0-.81.93.93,0,0,1-.38-1c.07-.27.2-.45.52-.3a.84.84,0,0,0,.84,0,.39.39,0,0,0,.19-.45.78.78,0,0,1,.25-.81c.29-.38.36-.38.73,0h0a.58.58,0,0,0,.84,0h0a.58.58,0,0,0,.16-.58c0-.16,0-.37.16-.33.39.13.8-.11,1.18.07.47.4.65.38,1-.11.13-.1.11-.25.14-.39s.11-.23.2-.18c.31.17.57,0,.84-.07s.41.13.55.31h0a.35.35,0,0,0,.41.22.12.12,0,0,1,.1,0c.1-.05.26.07.31-.12h0c.06,0,.1-.05.1-.11h0c.11,0,.08-.24.2-.19a4.44,4.44,0,0,1,.8.63c.2.16.07.43,0,.64a1.63,1.63,0,0,1-.09.19.62.62,0,0,0,0,.74.59.59,0,0,0,.77.13l.2-.21h0c.22-.13.5-.17.69-.37a.29.29,0,0,1,.34-.09c.15.08.14.23.11.38a1.94,1.94,0,0,0,0,.72c.37.47.43.49,1.06.21C44.92,21.15,45.16,21.36,45.15,21.88Z" transform="translate(-11.61)"/><path class="cls-6" d="M60.56,14.13,58.68,15l-9,4.37-.29.14a.27.27,0,0,1-.4-.12,13,13,0,0,0-3.41-3.38c-.22-.15-.2-.28-.08-.47l1.88-3.08c1.41-2.31,2.81-4.63,4.22-6.93.31-.51.22-.63.86-.19a26.55,26.55,0,0,1,7.86,8.21,3.47,3.47,0,0,1,.21.37A.94.94,0,0,1,60.56,14.13Z" transform="translate(-11.61)"/><path class="cls-7" d="M44.3,15.27c-.85-.32-1.63-.64-2.43-.9A11.41,11.41,0,0,0,40.44,14c-.45-.08-.91-.12-1.35-.21a.37.37,0,0,1-.2-.24,2.57,2.57,0,0,1,0-.48c0-1.31,0-2.62,0-3.93q0-3.63,0-7.26V1.55c0-.27.11-.39.38-.37.68.06,1.37.09,2.05.17s1.36.21,2,.35a20.68,20.68,0,0,1,2.1.49c.94.29,1.87.61,2.78,1s1.8.78,2.77,1.21Q47.58,9.89,44.3,15.27Z" transform="translate(-11.61)"/><path class="cls-6" d="M31.42,15.9c-.75.65-1.49,1.23-2.15,1.89a18.72,18.72,0,0,0-1.44,1.76c-.25.33-.23.34-.63.16l-6.77-3.08-4.26-1.92-.31-.17c.28-.48.55-.94.83-1.38s.61-.91.91-1.37c.15-.23.31-.26.52-.08s.25.19.38.29L25,16.92a.75.75,0,0,0,.63.22.59.59,0,0,0,.3-1,3.75,3.75,0,0,0-.53-.44L19,10.91c-.4-.3-.39-.31-.07-.69a26.49,26.49,0,0,1,4.83-4.45c.35-.26.35-.25.6.1q3.44,4.81,6.86,9.65A4.13,4.13,0,0,1,31.42,15.9Z" transform="translate(-11.61)"/><path class="cls-8" d="M57.38,25.43H51.22c-.22,0-.3-.09-.32-.31a15.6,15.6,0,0,0-.26-1.94,19.38,19.38,0,0,0-.65-2c0-.1-.11-.18-.15-.28a.37.37,0,0,1,.21-.52c.77-.35,1.52-.72,2.28-1.09L56,17.6l4.94-2.39c.22-.11.3,0,.36.16.31.73.64,1.44.89,2.19a32.52,32.52,0,0,1,1,3.23c.24,1.08.35,2.19.52,3.29.05.31.08.63.1.94s0,.4-.38.4h-6Z" transform="translate(-11.61)"/><path class="cls-9" d="M19.22,25.52H13.33c-.5,0-.5,0-.49-.48a15.73,15.73,0,0,1,.39-3.2c.15-.7.27-1.42.48-2.1.27-.91.6-1.8.92-2.7.12-.34.3-.67.45-1s.32-.37.67-.22c.74.32,1.47.67,2.2,1L20.7,18l3.16,1.43c.85.38,1.69.78,2.54,1.17.5.23.49.23.28.71s-.3.72-.43,1.08a.23.23,0,0,1-.32.17c-.47-.12-1-.21-1.44-.33-.68-.17-1.35-.38-2-.53a.78.78,0,0,0-.61.06c-.39.31-.38.76.11,1a12.34,12.34,0,0,0,1.47.42c.67.17,1.34.32,2,.47.28.07.45.21.39.52s-.13.8-.21,1.2a.24.24,0,0,1-.17.15,1.53,1.53,0,0,1-.37,0H19.22Z" transform="translate(-11.61)"/><path class="cls-10" d="M26.46,39,26,39c-.44,0-.89,0-1.33,0l-.75,0a1,1,0,0,1-.42.11c-.21-.08-.48,0-.65-.2h0c-.1-.28.08-.34.29-.37s.39,0,.57-.06c.57-.2,1.14-.38,1.69-.59a9.63,9.63,0,0,1,4.33-.42c1.56.13,3,.65,4.58.84a7.73,7.73,0,0,0,3.24-.26A14.61,14.61,0,0,0,41.28,36a8.47,8.47,0,0,1,5.55-1.34,17,17,0,0,1,4.22.94l1,.36-1.51,1.11a1.12,1.12,0,0,1-.4.49,21.47,21.47,0,0,1-5,2.82,13.71,13.71,0,0,1-3,.64,21.31,21.31,0,0,1-3.39,0,26.11,26.11,0,0,1-3-.47c-.34-.07-.64-.35-1-.36l-.05,0h0A.79.79,0,0,1,34,40l-.42,0c-.09-.08-.22,0-.32-.08l-.74-.14c-.1-.08-.23,0-.33-.08h0c-.26-.13-.58.14-.82-.12h0a6.42,6.42,0,0,0-.63-.15l-.13,0c-.18.06-.35.11-.51,0h0c-.13-.1-.3,0-.43-.08l-.54-.08a.61.61,0,0,1-.3,0l-.84,0C27.47,39,27,39.15,26.46,39Z" transform="translate(-11.61)"/><path class="cls-11" d="M18.49,31.46a3.45,3.45,0,0,1-.23.28,6.64,6.64,0,0,0-2,3.94c0,.14-.06.27-.1.44a5.45,5.45,0,0,1-1.81-.88c-.08-.05-.11-.18-.14-.27a26.27,26.27,0,0,1-1.42-7.8c0-.48,0-.49.48-.49l11.67,0h.16c.51,0,.51,0,.52.52a10.79,10.79,0,0,0,.48,3,1.68,1.68,0,0,1,.06.38c-.35-.14-.66-.28-1-.38a6.91,6.91,0,0,0-5.9.77L19,31.1a.09.09,0,0,1-.09-.1c0-.65-.17-.79-.8-.67-1,.19-2,.4-3,.61a1.7,1.7,0,0,0-.45.15.55.55,0,0,0-.28.68c.07.27.23.38.57.32.6-.09,1.18-.22,1.77-.34s.9-.2,1.35-.28a2.36,2.36,0,0,1,.46,0Z" transform="translate(-11.61)"/><path class="cls-11" d="M63.84,26.89c0,.33-.06.66-.08,1a23.21,23.21,0,0,1-1,5.89,4.63,4.63,0,0,1-.19.47l-.35-.15a6.81,6.81,0,0,0-3.78-.81,1.27,1.27,0,0,1-.91-.3q-3.12-2.34-6.27-4.63a.77.77,0,0,1-.39-.88c0-.22,0-.46,0-.68a.88.88,0,0,1,.18-.29.75.75,0,0,1,.42,0h.22a1.89,1.89,0,0,1,.58,0H63.12a1.35,1.35,0,0,1,.63.07l.09.14A.12.12,0,0,1,63.84,26.89Z" transform="translate(-11.61)"/><path class="cls-12" d="M32.29,6.83a.86.86,0,0,0,.23-1c-.36-1.07-.69-2.15-1-3.24-.14-.46-.12-.48.31-.58a28.87,28.87,0,0,1,5.3-.79h0c.64,0,.56,0,.56.52l0,10c0,.58,0,1.17,0,1.75,0,.27-.09.37-.36.39a12.92,12.92,0,0,0-1.52.21c-.25.05-.35,0-.42-.24-.23-.78-.47-1.56-.72-2.33S34.23,9.85,34,9s-.6-.79-1.19-.35A2,2,0,0,1,32.29,6.83Z" transform="translate(-11.61)"/><path class="cls-13" d="M20.55,37.53l-3-.3c-.27,0-.36-.14-.35-.4a5.87,5.87,0,0,1,7.44-5.78,4.13,4.13,0,0,1,3.1,3.48,9.89,9.89,0,0,1,.11,1.21c0,.19-.06.29-.27.32a15.06,15.06,0,0,0-3.14.92A13.11,13.11,0,0,1,20.55,37.53Z" transform="translate(-11.61)"/><path class="cls-14" d="M32.29,6.83l.47,1.85a4.28,4.28,0,0,0,.1.73q.68,2.29,1.38,4.56c.14.44.14.44-.28.64l-1.49.68-1.31-1.83c-1.56-2.18-3.11-4.37-4.67-6.56-.41-.57-.81-1.15-1.21-1.73-.21-.3-.19-.35.12-.53a24.93,24.93,0,0,1,3.9-1.87c1.1-.41.84-.41,1.2.65s.6,1.91.93,2.87C31.6,6.81,31.76,6.89,32.29,6.83Z" transform="translate(-11.61)"/><path class="cls-15" d="M22.42,44.22a1.57,1.57,0,0,1-.24.32c-.26.22-.55.42-.83.62-.09-.33-.09-.33-.59-.29.07-.35.07-.35.35-.27a.58.58,0,0,0,.18,0s0-.11,0-.13-.09-.2.08-.24.4-.15.22-.42a.11.11,0,0,1,0-.12s.12-.05.1-.14v0a.13.13,0,0,0,.13-.13l.1-.06a2.27,2.27,0,0,0,.34-.19.05.05,0,0,1,.07,0c.57-.23,1.15-.4,1.73-.6a8.53,8.53,0,0,1,4.85.38c1.16.46,2.28,1,3.4,1.59a21.17,21.17,0,0,0,5.11,1.87,11.25,11.25,0,0,0,7.52-1c1.35-.69,2.62-1.53,3.94-2.3a9.21,9.21,0,0,1,3.23-1.27c.73.18,1.43.47,2.18.6.28,0,.73,0,.68.52-.4-.06-.79-.14-1.19-.17a7.74,7.74,0,0,0-2.73.52,14,14,0,0,0-2.74,1.43c-1,.58-1.95,1.2-2.95,1.72a11.73,11.73,0,0,1-2.76,1,12.19,12.19,0,0,1-3.45.39,12.83,12.83,0,0,1-1.62-.21,17,17,0,0,1-2-.45,25.69,25.69,0,0,1-2.5-1c-1.1-.52-2.18-1.08-3.26-1.62a8.43,8.43,0,0,0-2.37-.86,7.74,7.74,0,0,0-3.25,0,15.89,15.89,0,0,0-1.58.59C22.47,44.12,22.45,44.18,22.42,44.22Z" transform="translate(-11.61)"/><path class="cls-16" d="M32.65,36.82,36,30c1.61,1.75,3,3.54,4.51,5.25C38.06,36.88,35.58,37.67,32.65,36.82Z" transform="translate(-11.61)"/><path class="cls-17" d="M45.52,33.48a3.14,3.14,0,0,1-.36.08,8.09,8.09,0,0,0-3.3.9c-.4.19-.41.19-.67-.12l-4.23-5c-.4-.47-.32-.37-.09-.81l.9-1.68a1.09,1.09,0,0,1,.17-.22Z" transform="translate(-11.61)"/><path class="cls-18" d="M34.74,40.19c.7.12,1.39.26,2.09.35s1.64.21,2.47.29a11.89,11.89,0,0,0,1.69.08,14.75,14.75,0,0,0,3-.34,13.59,13.59,0,0,0,4.25-2l2.29-1.52.65.75A21.51,21.51,0,0,1,45.3,41.4a13.21,13.21,0,0,1-5.65.63c-1.64-.16-3.28-.46-4.92-.71a3.06,3.06,0,0,1-.41-.1c0-.59.06-.61.6-.62.14,0,.27,0,.48,0-.15-.18-.25-.3-.46-.23C34.89,40.35,34.81,40.24,34.74,40.19Z" transform="translate(-11.61)"/><path class="cls-17" d="M51.74,34.53l-.44-.17c-.07-.15-.22,0-.32-.12l-.08,0c-.15-.17-.37-.14-.56-.18l-2.76-.47a1,1,0,0,1-.47-.22c-1.15-1-2.29-2.1-3.44-3.15-.23-.2-.25-.35-.05-.61.41-.55.77-1.14,1.16-1.7.24-.34.27-.34.56-.05.67.68,1.32,1.38,2,2.05q2.2,2.22,4.43,4.42A.17.17,0,0,1,51.74,34.53Z" transform="translate(-11.61)"/><path class="cls-19" d="M56.57,33.71c-.35.13-.58.21-.8.31a12,12,0,0,0-1.14.56.45.45,0,0,1-.67-.07c-1.84-1.79-3.7-3.55-5.53-5.35-.82-.8-1.6-1.65-2.39-2.48a2.18,2.18,0,0,1-.58-.89l.09-.09Z" transform="translate(-11.61)"/><path class="cls-20" d="M46,24.22l-.08-.37.67-.08v-.12l-.42,0c-.13,0-.27,0-.45,0a1,1,0,0,0-.37-1l.64-.08s.07,0,.08,0l2.3-1.2c.24-.12.35,0,.43.19.22.71.46,1.41.67,2.12.09.31,0,.35-.31.37l-2.12.11C46.71,24.14,46.36,24.19,46,24.22Z" transform="translate(-11.61)"/><path class="cls-20" d="M31.34,25.08c0,.3,0,.47-.39.44a.64.64,0,0,0-.42.11,1,1,0,0,1,.23.11.25.25,0,0,1,.09.13c-.26.21.11.32.07.49l-2.24.34c-.49.08-1,.18-1.46.27s-.45,0-.44-.36c0-.6.08-1.2.11-1.8,0-.32.23-.29.45-.25l2.28.43c.38.07.77.14,1.15.18A2.82,2.82,0,0,0,31.34,25.08Z" transform="translate(-11.61)"/><path class="cls-20" d="M36.66,18.93c-.19,0-.39-.05-.46.22,0,.11-.19.19-.33.33a1.75,1.75,0,0,0-.07-.36c0-.07-.13-.12-.2-.19-.07.08-.18.15-.21.24s0,.29,0,.42-.14.12-.21.18a1,1,0,0,0-.09-1L33.67,16a2.33,2.33,0,0,1,.42-.24l1.72-.52c.28-.09.37,0,.4.29.1.93.23,1.85.35,2.78C36.58,18.54,36.62,18.73,36.66,18.93Z" transform="translate(-11.61)"/><path class="cls-20" d="M39.43,18.49c-.07,0-.15,0-.19-.06-.19-.22-.36-.16-.55,0-.42.34-.42.33-.65-.08l-.34.47c-.11-1-.22-2-.34-3a.9.9,0,0,0,0-.16c-.08-.56,0-.61.52-.6s1.06,0,1.58.08.42,0,.35.43c-.13.68-.27,1.35-.37,2A5.8,5.8,0,0,0,39.43,18.49Z" transform="translate(-11.61)"/><path class="cls-20" d="M29.86,27.64c0,.29-.05.57.27.79.14.09.08.43.2.6s.42.21.52.38a.44.44,0,0,1-.14.67.09.09,0,0,1,0,0c0-.23.11-.48-.11-.64a.66.66,0,0,0-.75,0l-1.73.92c-.64.36-.66.37-.86-.33-.16-.52-.26-1.05-.38-1.59-.05-.23,0-.38.3-.42C28.08,27.91,29,27.77,29.86,27.64Z" transform="translate(-11.61)"/><path class="cls-20" d="M43.34,21.05a.66.66,0,0,0-.12-.22.36.36,0,0,1,0-.62s0-.09,0-.18a.56.56,0,0,0-.4.29c-.2.24-.39.29-.64.09l1.55-2.64c.16-.29.34-.58.5-.87s.21-.22.38-.11A8,8,0,0,1,46.16,18l-1.55,1.55c-.3.29-.63.57-.91.89A4.29,4.29,0,0,0,43.34,21.05Z" transform="translate(-11.61)"/><path class="cls-20" d="M41.33,19.56a2,2,0,0,0,0-.42c0-.08-.13-.21-.18-.2-.35,0-.46-.15-.5-.44a.5.5,0,0,0-.08-.14l-.21.12.54-2.74c.08-.36.11-.4.45-.31.57.17,1.14.36,1.7.55.25.08.28.26.16.46Z" transform="translate(-11.61)"/><path class="cls-20" d="M32.32,21c-.22,0-.34.07-.35.33a2,2,0,0,0,.21,1l-.84-.45.07-.08-.07.08L29.21,21l-.53-.24c-.16-.08-.2-.2-.09-.34.42-.55.84-1.09,1.27-1.62.15-.19.29-.13.44,0Z" transform="translate(-11.61)"/><path class="cls-20" d="M32.6,31.24c.08.15.15.3.23.44a1.22,1.22,0,0,0,.15.17l.1-.2a.61.61,0,0,0,0-.15l.57.6-1.33,2.8A.26.26,0,0,1,32,35a5.67,5.67,0,0,1-1.65-.93Z" transform="translate(-11.61)"/><path class="cls-20" d="M32.19,23.17c0,.06,0,.17-.08.17-.27,0-.34.22-.4.44l-.37-.18v.6l-3.67-.71c-.4-.08-.45-.13-.33-.51s.24-.66.37-1,.19-.46.63-.24l2.33,1.13A2.14,2.14,0,0,0,32.19,23.17Z" transform="translate(-11.61)"/><path class="cls-20" d="M34.33,19.77a.77.77,0,0,0-.23-.1c-.08,0-.23,0-.25,0-.11.22-.13.47-.41.57,0,0,0,.25,0,.39s0,.43-.31.4A.84.84,0,0,0,32.94,20c-.58-.59-1.15-1.2-1.71-1.81-.32-.36-.31-.4.07-.71s.63-.46.95-.67.38-.24.59.14L34,19.16Z" transform="translate(-11.61)"/><path class="cls-20" d="M30.71,30.08c0,.14,0,.29.18.32s.18-.29.38-.41c.09.32.06.79.6.62L29.29,33.5a6.24,6.24,0,0,1-1.35-1.82Z" transform="translate(-11.61)"/><path class="cls-20" d="M45.15,21.88c-.18-.3-.36-.59-.75-.62.74-.75,1.49-1.51,2.24-2.25.26-.25.37-.27.57,0s.62.81.95,1.25Z" transform="translate(-11.61)"/><path class="cls-20" d="M47.29,25.24l1.08-.11c.34,0,.67,0,1,0s.4.08.41.35v1.68c-.92-.56-1.72-1.18-2.54-1.77Z" transform="translate(-11.61)"/><path class="cls-21" d="M63.75,26.54H52.38l-.63,0c.09-.24.3-.14.46-.14h11C63.39,26.37,63.66,26.23,63.75,26.54Z" transform="translate(-11.61)"/><path class="cls-18" d="M23.69,38.37c-.21.07-.43.12-.64.21s-.15.14-.22.22L22,38.69a.13.13,0,0,0-.07-.06s0,0,.07.06c-.13.34-.45.28-.7.3a2.76,2.76,0,0,1-.68-.16c.06-.09.08-.17.13-.19.23-.07.43-.16.42-.45,0,0,.06-.08.1-.11.23.27.52-.14.76.05.08.07.21.14.28.12C22.79,38.1,23.23,38.38,23.69,38.37Z" transform="translate(-11.61)"/><path class="cls-13" d="M28.89,34.42,30.8,36c-.58,0-1.08-.05-1.58-.1a.31.31,0,0,1-.21-.22C29,35.3,28.93,34.89,28.89,34.42Z" transform="translate(-11.61)"/><path class="cls-18" d="M23.49,38.89h.42l-.16.2.75,0v.15l-1,.07v.14l1,.07v.12a5.45,5.45,0,0,1-2-.08,1.07,1.07,0,0,0,.26-.09.23.23,0,0,0,.11-.15.18.18,0,0,0-.12-.13c-.19-.07-.38-.12-.69-.21a1.69,1.69,0,0,1,.83-.13l.07,0a.84.84,0,0,0,.52,0Z" transform="translate(-11.61)"/><path class="cls-15" d="M55.57,43.11l-.43-.19a.74.74,0,0,0-.76-.5c-.15,0-.34,0-.34-.25a.35.35,0,0,1,.31-.32,2.59,2.59,0,0,1,.78-.08l.44.12c.1.18.56,0,.43.41C55.68,42.48,55.66,42.82,55.57,43.11Z" transform="translate(-11.61)"/><path class="cls-18" d="M27.73,40.28l-1.49-.09a3.33,3.33,0,0,1,.13-.45c.11-.24.34-.27.47,0s.25.45.59.29C27.48,40,27.63,40.18,27.73,40.28Z" transform="translate(-11.61)"/><path class="cls-18" d="M56,42.3l-.24-.21-.19-.2a2.83,2.83,0,0,1,1.37.63c-.18-.05-.37-.11-.56-.15Z" transform="translate(-11.61)"/><path class="cls-18" d="M30.17,40.5,29,40.38c.06-.07.12-.18.19-.19a5.75,5.75,0,0,1,.73,0l-.2.15Z" transform="translate(-11.61)"/><path class="cls-18" d="M33,40.6c.05-.47.05-.47.6-.36,0,.44-.33.35-.6.36Z" transform="translate(-11.61)"/><path class="cls-18" d="M32.83,40.93l-.64-.12c.08-.07.15-.18.24-.2a4.14,4.14,0,0,1,.61,0h0Z" transform="translate(-11.61)"/><path class="cls-18" d="M34,40l.63.17a.55.55,0,0,1-.68.18Z" transform="translate(-11.61)"/><path class="cls-18" d="M26.46,39l1.5.09H26.69C26.61,39.11,26.54,39.05,26.46,39Z" transform="translate(-11.61)"/><path class="cls-18" d="M31.35,39.53l.82.12a3.11,3.11,0,0,1-.6.09C31.5,39.74,31.42,39.6,31.35,39.53Z" transform="translate(-11.61)"/><path class="cls-18" d="M24.66,38.93,26,39Z" transform="translate(-11.61)"/><path class="cls-20" d="M35.16,19.77a.5.5,0,0,1-.84,0A.77.77,0,0,0,35.16,19.77Z" transform="translate(-11.61)"/><path class="cls-18" d="M25.67,39.15h.62a.49.49,0,0,1-.63.11Z" transform="translate(-11.61)"/><path class="cls-20" d="M40.25,18.58v.5l-.09,0-.22-.41Z" transform="translate(-11.61)"/><path class="cls-20" d="M31.87,30.61c.3-.29.37-.29.64,0Z" transform="translate(-11.61)"/><path class="cls-18" d="M30.08,39.32l.51,0C30.29,39.61,30.22,39.61,30.08,39.32Z" transform="translate(-11.61)"/><path class="cls-18" d="M24.12,40.07l-.87-.1Z" transform="translate(-11.61)"/><path class="cls-20" d="M32.62,30.83l.2.22-.22.19Z" transform="translate(-11.61)"/><path class="cls-22" d="M51.74,34.53l0-.22s.1,0,.13.07.07.15.11.23Z" transform="translate(-11.61)"/><path class="cls-21" d="M51.53,26.5h-.42C51.25,26.29,51.39,26.3,51.53,26.5Z" transform="translate(-11.61)"/><path class="cls-20" d="M39.84,18.71l-.17.14-.24-.36Z" transform="translate(-11.61)"/><path class="cls-22" d="M50.34,34c.2,0,.46-.15.56.18Z" transform="translate(-11.61)"/><path class="cls-18" d="M30.72,39.38l.63.15Z" transform="translate(-11.61)"/><path class="cls-18" d="M31.56,40.71,31,40.59a1.73,1.73,0,0,1,.38-.05C31.45,40.55,31.5,40.65,31.56,40.71Z" transform="translate(-11.61)"/><path class="cls-18" d="M22.84,38.81l.65.08,0,0a.53.53,0,0,1-.62,0h0Z" transform="translate(-11.61)"/><path class="cls-15" d="M56,43.25l-.22-.11.14-.16Z" transform="translate(-11.61)"/><path class="cls-5" d="M46.09,22.53a1.84,1.84,0,0,1,.09.25l-.08,0L46,22.55A.08.08,0,0,1,46.09,22.53Z" transform="translate(-11.61)"/><path class="cls-18" d="M21.57,43.68v.11h-.32l.32-.23a.07.07,0,0,1,0,.08S21.58,43.68,21.57,43.68Z" transform="translate(-11.61)"/><path class="cls-18" d="M33.89,41.13,33.44,41Z" transform="translate(-11.61)"/><path class="cls-18" d="M29.64,39.54l-.17-.08.17-.14h0v.21Z" transform="translate(-11.61)"/><path class="cls-18" d="M29.64,39.24l.43.08h-.43Z" transform="translate(-11.61)"/><path class="cls-21" d="M63.84,26.89v-.21l.19.11Z" transform="translate(-11.61)"/><path class="cls-14" d="M42.18,20.41l-.2.21Z" transform="translate(-11.61)"/><path class="cls-18" d="M32.2,39.66l.33.08Z" transform="translate(-11.61)"/><path class="cls-22" d="M51,34.24l.32.12Z" transform="translate(-11.61)"/><path class="cls-18" d="M29,39.42l-.08,0s.06,0,.09,0,.05,0,.07,0Z" transform="translate(-11.61)"/><path class="cls-18" d="M28.8,39.14l.3,0Z" transform="translate(-11.61)"/><path class="cls-18" d="M33.27,39.88l.32.08Z" transform="translate(-11.61)"/><path class="cls-18" d="M29.64,39.54l.05.05h0s0,0,0,0Z" transform="translate(-11.61)"/><path class="cls-11" d="M18.49,31.46v-.07l.07,0-.08,0Z" transform="translate(-11.61)"/><path class="cls-11" d="M19,31.1l-.13,0,0-.13Z" transform="translate(-11.61)"/><path class="cls-20" d="M40.35,18.48l-.1.11Z" transform="translate(-11.61)"/><path class="cls-15" d="M56.1,43.34l-.1-.08Z" transform="translate(-11.61)"/><path class="cls-2" d="M55.13,41.77l-1,.36v.12a2.73,2.73,0,0,0,.4,0c.67,0,.62-.06.62.62l-.22,0c-.16-.38-.54-.36-.85-.37a4.57,4.57,0,0,1-1.31-.37,4.07,4.07,0,0,0-.61-.08c-.26,0-.14-.18-.09-.3l.85-.12c.47.08.94-.18,1.4,0Z" transform="translate(-11.61)"/><path class="cls-18" d="M24,42.54a1.84,1.84,0,0,1-.56.31c-.4.07-.74.37-1.17.29A3.94,3.94,0,0,1,24,42.54Z" transform="translate(-11.61)"/><path class="cls-15" d="M54.31,41.66c-.39.05-.78.08-1.16.16-.17,0-.23,0-.24-.16Z" transform="translate(-11.61)"/><path class="cls-18" d="M22.21,43.17c0,.23-.19.19-.34.19Z" transform="translate(-11.61)"/><path class="cls-2" d="M21.57,43.68v-.12a0,0,0,0,1,.06,0Z" transform="translate(-11.61)"/><path class="cls-18" d="M21.77,43.42l-.13.13Z" transform="translate(-11.61)"/><path class="cls-18" d="M39.65,50.58h-1c-.2,0-.3-.08-.29-.28a2.37,2.37,0,0,1,0-.47.37.37,0,0,1,.45-.28,1.93,1.93,0,0,0,1,0,2.81,2.81,0,0,1,.58,0c.51,0,.57.06.55.58s-.06.45-.46.46S40,50.58,39.65,50.58Z" transform="translate(-11.61)"/><path class="cls-2" d="M22.42,44.22l.06-.14,0,.12Z" transform="translate(-11.61)"/><path class="cls-2" d="M53.6,11.15c.51,0,.75.35.56.74a1.57,1.57,0,0,1-.33.4l-4.6,4.25a2.88,2.88,0,0,1-.34.27.52.52,0,0,1-.67-.08.53.53,0,0,1-.1-.68,1.22,1.22,0,0,1,.28-.32q2.37-2.16,4.76-4.3A2,2,0,0,1,53.6,11.15Z" transform="translate(-11.61)"/><path class="cls-2" d="M55.43,10.73c-.24-.28-.53-.48-.54-.7s.29-.39.49-.55.62.39.57.52A5.42,5.42,0,0,1,55.43,10.73Z" transform="translate(-11.61)"/><path class="cls-2" d="M41.13,12.22c0-.18.13-.48.2-.79.18-.83.35-1.66.54-2.48.25-1.15.5-2.3.76-3.46q.19-.87.42-1.74a.64.64,0,0,1,.25-.39.82.82,0,0,1,.58-.12c.13,0,.24.27.3.43a.76.76,0,0,1,0,.42c-.29,1.29-.58,2.57-.86,3.86-.25,1.1-.47,2.21-.71,3.31-.09.43-.19.86-.32,1.28s-.33.52-.71.44S41.13,12.76,41.13,12.22Z" transform="translate(-11.61)"/><path class="cls-2" d="M24.67,11a1.55,1.55,0,0,1,.35.2q.56.57,1.08,1.17a.52.52,0,0,1-.79.69c-.33-.35-.64-.71-.95-1.08a.55.55,0,0,1-.07-.64A1.83,1.83,0,0,1,24.67,11Z" transform="translate(-11.61)"/><path class="cls-23" d="M55.82,21.89l-3.06.81-.81.21a.61.61,0,0,1-.8-.33.59.59,0,0,1,.39-.76,9,9,0,0,1,1.16-.32l3.88-1,2.92-.73.82-.2a.4.4,0,0,1,.48.23.86.86,0,0,1,0,.55.9.9,0,0,1-.72.47l-3.16.81-.7.19C56.08,21.89,55.93,21.8,55.82,21.89Z" transform="translate(-11.61)"/><path class="cls-22" d="M55.82,21.89l.37-.08Z" transform="translate(-11.61)"/><path class="cls-23" d="M15.15,20.13l2.16.44c.38.07.76.14,1.14.19a.58.58,0,0,1,.32.95.62.62,0,0,1-.46.17c-.65-.08-1.28-.2-1.92-.31-.47-.09-.94-.17-1.4-.27a.6.6,0,0,1-.54-.73C14.5,20.26,14.7,20.14,15.15,20.13Z" transform="translate(-11.61)"/><path class="cls-24" d="M61.16,30.42l-1.87-.33-4-.7a5.12,5.12,0,0,1-.56-.15.43.43,0,0,1-.3-.5.74.74,0,0,1,.3-.45,1,1,0,0,1,.56-.06q3,.49,5.91,1c.44.07.59.21.62.53S61.65,30.44,61.16,30.42Z" transform="translate(-11.61)"/><path class="cls-25" d="M22.17,44.12l-.07.06L22,44.07s.07,0,.09,0S22.16,44.09,22.17,44.12Z" transform="translate(-11.61)"/><path class="cls-5" d="M31.34,21.91l.06-.46c.14.3.14.3-.06.46Z" transform="translate(-11.61)"/><path class="cls-5" d="M31.83,21a1.14,1.14,0,0,1-.32.06c-.05,0-.08-.08-.12-.12a.7.7,0,0,1,.19-.06C31.63,20.85,31.68,20.89,31.83,21Z" transform="translate(-11.61)"/><path class="cls-2" d="M22,38.69l-.46-.06c.32-.14.32-.14.46.06Z" transform="translate(-11.61)"/><path class="cls-2" d="M22.85,38.9h.62C23.27,39.2,23.05,39.2,22.85,38.9Z" transform="translate(-11.61)"/></g></g></svg>